<?xml version="1.0" encoding="UTF-8"?>
<svg id="Layer_1" xmlns="http://www.w3.org/2000/svg" version="1.1" viewBox="0 0 512 512">
  <!-- Generator: Adobe Illustrator 30.1.0, SVG Export Plug-In . SVG Version: 2.1.1 Build 136)  -->
  <defs>
    <style>
      .st0 {
        stroke-width: 7px;
      }

      .st0, .st1 {
        fill: #f6f4f0;
        stroke: #141414;
        stroke-miterlimit: 10;
      }

      .st2 {
        fill: #141414;
      }

      .st1 {
        stroke-width: 2.09px;
      }
    </style>
  </defs>
  <circle class="st2" cx="256" cy="256" r="252.17"/>
  <path class="st1" d="M227.79,293.4h61.17c.96,5.99,3.77,11.21,8.41,15.65,4.64,4.45,10.87,7.88,18.7,10.29,7.83,2.42,17.05,3.62,27.68,3.62,14.68,0,26.28-1.88,34.79-5.65,8.5-3.77,12.75-9.32,12.75-16.67,0-5.6-2.42-9.95-7.25-13.05-4.83-3.09-14.11-5.31-27.83-6.67l-40.58-3.77c-29.96-2.7-51.7-9.52-65.22-20.44-13.53-10.92-20.29-25.66-20.29-44.21,0-15.07,4.39-27.83,13.19-38.26,8.79-10.44,21.16-18.31,37.1-23.63,15.94-5.31,34.54-7.97,55.8-7.97s39.42,2.95,55.66,8.84c16.23,5.9,29.13,14.25,38.7,25.08,9.57,10.83,14.73,23.39,15.51,37.69h-60.88c-.77-5.22-3.24-9.71-7.39-13.48-4.16-3.77-9.81-6.67-16.96-8.7-7.15-2.03-15.75-3.04-25.8-3.04-13.53,0-24.26,1.79-32.18,5.36-7.93,3.58-11.89,8.84-11.89,15.8,0,5.03,2.36,9.09,7.1,12.17,4.73,3.09,13.28,5.22,25.65,6.38l43.19,4.35c20.68,1.93,37.2,5.27,49.57,10,12.37,4.74,21.35,11.26,26.96,19.57,5.6,8.31,8.41,18.65,8.41,31.02,0,15.27-4.54,28.55-13.62,39.86-9.09,11.31-21.84,20.1-38.26,26.38-16.43,6.28-35.56,9.42-57.4,9.42s-42.18-3.14-59.28-9.42c-17.1-6.28-30.49-15.17-40.15-26.67-9.67-11.5-14.78-24.79-15.36-39.86Z"/>
  <path class="st0" d="M285.08,274.98c-5.41-8.41-13.58-14.98-24.5-19.71-4.18-1.81-8.8-3.31-13.85-4.48,1.81-.86,3.54-1.78,5.16-2.77,9.37-5.7,16.18-12.7,20.44-21.02,4.25-8.31,6.38-17,6.38-26.09,0-16.62-5.61-29.61-16.81-38.99-11.21-9.37-26.86-14.06-46.96-14.06H60.13l16.81,105.81-16.81,111.61h160.6c16.04,0,29.42-2.65,40.15-7.97,10.73-5.31,18.79-12.56,24.21-21.74,5.41-9.18,8.12-19.66,8.12-31.45,0-11.02-2.71-20.73-8.12-29.13ZM211.45,195.56c4.06,3.77,6.09,8.55,6.09,14.35,0,7.15-2.37,12.8-7.1,16.96-4.74,4.16-10.58,6.23-17.54,6.23h-61.87l-6.95-43.19h69.98c7.54,0,13.33,1.88,17.39,5.65ZM224.78,316.87c-4.83,4.25-11.6,6.38-20.29,6.38h-80.68l7.41-48.99h69.79c10.24,0,17.97,2.27,23.19,6.81,5.22,4.54,7.83,10.58,7.83,18.12s-2.42,13.43-7.25,17.68Z"/>
</svg>