<svg width="34" height="34" viewBox="0 0 34 34" fill="none" xmlns="http://www.w3.org/2000/svg">
<rect width="34" height="34" rx="17" fill="#14A800"/>
<path d="M23.0143 18.0889C22.0041 18.0889 21.0572 17.6497 20.1964 16.9351L20.4054 15.9234L20.4127 15.8839C20.6025 14.8091 21.191 13.0066 23.0152 13.0066C24.3828 13.0066 25.4929 14.1462 25.4929 15.5482C25.492 16.9483 24.3819 18.0889 23.0143 18.0889ZM23.0143 10.4349C20.6868 10.4349 18.8801 11.9854 18.1468 14.5402C17.0284 12.8157 16.1778 10.7452 15.6837 9H13.1757V15.6874C13.1738 17.0094 12.1298 18.0813 10.8409 18.0832C9.553 18.0813 8.50983 17.0085 8.508 15.6874V9H6V15.6874C6 18.4274 8.1725 20.6737 10.8409 20.6737C13.5112 20.6737 15.6837 18.4274 15.6837 15.6874V14.5684C16.1686 15.6093 16.7672 16.6643 17.4932 17.5971L15.9596 25H18.5235L19.6354 19.6309C20.6098 20.2694 21.73 20.6737 23.0143 20.6737C25.7643 20.6737 28 18.3681 28 15.5491C28 12.7283 25.7643 10.4349 23.0143 10.4349Z" fill="white"/>
</svg>
